HIERARCHY
ROOT Hips
{
	OFFSET -3.958830 18.904000 13.208200
	CHANNELS 6 Xposition Yposition Zposition Zrotation Yrotation Xrotation 
	JOINT LHipJoint
	{
		OFFSET 0.000000 0.000000 0.000000
		CHANNELS 3 Zrotation Yrotation Xrotation
		JOINT LeftUpLeg
		{
			OFFSET 1.800000 -1.400000 0.085000
			CHANNELS 3 Zrotation Yrotation Xrotation
			JOINT LeftLeg
			{
				OFFSET 2.215000 -6.000000 0.000000
				CHANNELS 3 Zrotation Yrotation Xrotation
				JOINT LeftFoot
				{
					OFFSET 2.500000 -6.900000 0.000000
					CHANNELS 3 Zrotation Yrotation Xrotation
					JOINT LeftToeBase
					{
						OFFSET 0.200000 -0.500000 1.950000
						CHANNELS 3 Zrotation Yrotation Xrotation
						End Site
						{
							OFFSET 0.000000 0.000000 0.000000
						}
					}
				}
			}
		}
	}
	JOINT RHipJoint
	{
		OFFSET 0.000000 0.000000 0.000000
		CHANNELS 3 Zrotation Yrotation Xrotation
		JOINT RightUpLeg
		{
			OFFSET -1.800000 -1.400000 0.085000
			CHANNELS 3 Zrotation Yrotation Xrotation
			JOINT RightLeg
			{
				OFFSET -2.215000 -6.000000 0.000000
				CHANNELS 3 Zrotation Yrotation Xrotation
				JOINT RightFoot
				{
					OFFSET -2.500000 -6.900000 0.000000
					CHANNELS 3 Zrotation Yrotation Xrotation
					JOINT RightToeBase
					{
						OFFSET -0.200000 -0.500000 1.950000
						CHANNELS 3 Zrotation Yrotation Xrotation
						End Site
						{
							OFFSET 0.000000 0.000000 0.000000
						}
					}
				}
			}
		}
	}
	JOINT LowerBack
	{
		OFFSET 0.000000 0.000000 0.000000
		CHANNELS 3 Zrotation Yrotation Xrotation
		JOINT Spine
		{
			OFFSET -0.087000 1.940000 -0.288900
			CHANNELS 3 Zrotation Yrotation Xrotation
			JOINT Spine1
			{
				OFFSET 0.000000 1.950000 0.060000
				CHANNELS 3 Zrotation Yrotation Xrotation
				JOINT Neck
				{
					OFFSET 0.000000 0.000000 0.000000
					CHANNELS 3 Zrotation Yrotation Xrotation
					JOINT Neck1
					{
						OFFSET 0.000000 1.600000 0.340000
						CHANNELS 3 Zrotation Yrotation Xrotation
						JOINT Head
						{
							OFFSET 0.000000 1.667000 -0.240000
							CHANNELS 3 Zrotation Yrotation Xrotation
							End Site
							{
								OFFSET 0.000000 0.000000 0.000000
							}
						}
					}
				}
				JOINT LeftShoulder
				{
					OFFSET 0.000000 0.000000 0.000000
					CHANNELS 3 Zrotation Yrotation Xrotation
					JOINT LeftArm
					{
						OFFSET 2.700000 1.550000 -0.730000
						CHANNELS 3 Zrotation Yrotation Xrotation
						JOINT LeftForeArm
						{
							OFFSET 5.450000 0.000000 0.000000
							CHANNELS 3 Zrotation Yrotation Xrotation
							JOINT LeftHand
							{
								OFFSET 3.450000 0.000000 0.000000
								CHANNELS 3 Zrotation Yrotation Xrotation
								JOINT LeftHandIndex1
								{
									OFFSET 0.750000 0.000000 0.000000
									CHANNELS 3 Zrotation Yrotation Xrotation
									End Site
									{
										OFFSET 0.000000 0.000000 0.000000
									}
								}
							}
						}
					}
				}
				JOINT RightShoulder
				{
					OFFSET 0.000000 0.000000 0.000000
					CHANNELS 3 Zrotation Yrotation Xrotation
					JOINT RightArm
					{
						OFFSET -2.700000 1.550000 -0.730000
						CHANNELS 3 Zrotation Yrotation Xrotation
						JOINT RightForeArm
						{
							OFFSET -5.450000 0.000000 0.000000
							CHANNELS 3 Zrotation Yrotation Xrotation
							JOINT RightHand
							{
								OFFSET -3.450000 0.000000 0.000000
								CHANNELS 3 Zrotation Yrotation Xrotation
								JOINT RightHandIndex1
								{
									OFFSET -0.750000 0.000000 0.000000
									CHANNELS 3 Zrotation Yrotation Xrotation
									End Site
									{
										OFFSET 0.000000 0.000000 0.000000
									}
								}
							}
						}
					}
				}
			}
		}
	}
}
MOTION
Frames: 14
Frame Time: 0.016667
-0.493470 17.515310 -2.388680 -1.981106 -10.148588 -1.179361 -15.228009 13.965453 2.888417 9.275452 -0.597779 -7.837698 -10.185086 7.877188 15.223831 -0.011953 4.967644 2.843286 0.224890 -0.059560 0.407400 18.096084 -10.802790 2.556193 -15.395877 2.007460 -28.506935 2.002954 -7.238399 35.158697 -0.179137 -4.895334 2.545615 -0.063880 0.064810 0.114200 -3.047550 -2.901185 -7.379864 4.118087 -2.669784 10.410894 -3.851873 -1.946849 7.832201 2.432918 -3.293480 -9.822115 -10.095578 7.461839 42.783308 -5.454560 7.626030 0.685640 -20.801332 -6.036420 2.828786 -40.464725 -2.390193 -5.442589 -23.049875 -28.305870 3.581754 -3.637598 3.158872 0.290370 0.075610 -0.020760 0.020050 16.395216 7.855259 7.284207 49.765860 -3.409287 -10.308516 68.448995 51.320685 24.812839 2.465110 -1.892680 -0.114680 -0.002430 -0.082430 -0.181470 
-0.504520 17.504010 -2.385310 -1.869526 -10.170294 -0.862750 -15.214894 13.949633 2.884245 9.153238 -0.655380 -8.246850 -10.177583 7.877725 15.361738 -0.007608 4.956304 2.856435 0.214120 -0.065640 0.387850 18.111331 -10.854338 2.487726 -15.347059 1.772784 -28.102056 1.669337 -6.914493 33.849641 -0.126622 -4.709101 2.624892 -0.062410 0.092760 0.115690 -3.091785 -2.824155 -7.286247 4.348599 -2.731341 9.741918 -4.246414 -1.993978 8.210893 2.437506 -3.429164 -9.655744 -10.082841 7.432583 41.594455 -5.623940 7.651020 1.366370 -20.309062 -5.433048 2.671627 -40.447879 -2.344080 -5.478124 -23.098261 -28.966786 3.764479 -3.661386 3.181830 0.253980 0.104110 -0.048920 0.028770 15.832259 7.311118 7.214003 49.812352 -3.350544 -9.711703 72.376197 51.991810 27.276335 2.470874 -1.940615 -0.114710 -0.006570 -0.081310 -0.170020 
-0.528680 17.484570 -2.384980 -1.636416 -10.197652 -0.283300 -15.203319 13.915050 2.889972 8.975878 -0.747871 -8.892190 -10.358091 7.881291 15.323220 -0.007539 4.950481 2.884884 0.180660 -0.092860 0.344530 18.129708 -10.910839 2.390680 -15.295584 1.470123 -27.577770 1.103185 -6.452214 32.115414 -0.054993 -4.459653 2.737982 -0.063380 0.154600 0.103580 -3.140694 -2.729495 -7.156077 4.516360 -2.819234 8.716401 -4.785857 -2.069196 8.815968 2.421318 -3.669934 -9.577537 -10.139755 7.545840 39.875311 -5.396560 7.521610 2.330870 -19.064075 -4.461589 2.550322 -40.962090 -2.117042 -5.704082 -22.760740 -30.553220 4.011744 -3.694482 3.186124 0.212250 0.144360 -0.094340 0.046680 14.556824 6.507679 7.237150 50.330173 -3.282226 -8.775783 79.543285 53.495791 32.286268 2.485989 -1.987024 -0.137610 0.017720 -0.070210 -0.150170 
-0.553480 17.471280 -2.390850 -1.399394 -10.131404 0.355570 -15.172680 13.865257 2.869535 8.689375 -0.907048 -9.834320 -10.138458 7.784335 15.538677 -0.026809 4.899386 2.926584 0.160870 -0.109530 0.304160 18.167874 -10.960235 2.335398 -15.423873 1.225291 -27.187980 1.077644 -6.277134 30.710527 -0.002306 -4.320943 2.806035 -0.055600 0.218120 0.100060 -3.250263 -2.598917 -7.029001 5.100153 -3.014988 7.818180 -5.740655 -2.208118 9.370516 2.380985 -4.058530 -9.451318 -10.423031 7.652640 37.859422 -5.018390 7.084560 3.102030 -17.812773 -3.324538 2.349076 -41.243248 -1.794462 -5.941804 -22.471554 -32.192751 4.280893 -3.725040 3.205575 0.171190 0.184700 -0.139810 0.070550 13.278096 5.596746 7.234439 51.019362 -3.234876 -7.729882 88.104229 54.580153 38.453161 2.494933 -2.038880 -0.156450 0.038540 -0.062770 -0.127920 
-0.575570 17.473520 -2.395830 -1.200967 -10.088457 0.956856 -15.135428 13.796710 2.867517 8.467685 -0.992967 -10.389264 -10.164397 7.623764 15.053130 -0.045321 4.824257 2.973579 0.142280 -0.121510 0.265010 18.212352 -10.996768 2.299471 -15.300813 1.117720 -26.790918 1.173277 -6.092854 29.312255 0.041226 -4.172883 2.871874 -0.048780 0.268810 0.096360 -3.379486 -2.444745 -6.932195 5.937194 -3.173523 7.125803 -6.793687 -2.298004 9.849457 2.360496 -4.563715 -9.432129 -10.962558 7.785869 35.997707 -4.716670 6.584200 3.461210 -16.816461 -2.243542 2.243620 -41.521078 -0.914752 -6.506883 -22.030297 -34.567640 4.583253 -3.738665 3.228414 0.140850 0.212700 -0.174330 0.087650 12.218782 4.852551 7.348636 51.810665 -3.446999 -6.937364 97.202247 55.625924 45.803916 2.504059 -2.059631 -0.171380 0.058160 -0.051790 -0.106930 
-0.591320 17.490020 -2.392330 -1.142689 -9.884181 1.345407 -15.091468 13.728779 2.875993 8.386348 -1.018269 -10.620844 -10.364781 7.529736 14.512835 -0.053659 4.768831 3.001291 0.137200 -0.118930 0.240910 18.257622 -11.050577 2.268917 -14.942138 1.073210 -26.269520 1.163917 -5.905003 28.202010 0.072401 -4.047020 2.939815 -0.041520 0.291000 0.088030 -3.518912 -2.255859 -6.871342 7.004135 -3.261088 6.732376 -7.828102 -2.334040 10.188065 2.477409 -4.880133 -9.420081 -11.264903 7.971604 35.039220 -4.625820 6.392860 3.685030 -16.069799 -1.240798 2.117801 -41.934214 -0.127314 -7.073051 -21.489148 -36.910637 4.845188 -3.737778 3.250968 0.120100 0.228380 -0.196520 0.099160 11.147518 4.041989 7.448079 52.589834 -3.705473 -6.341262 104.993824 55.959629 52.545546 2.485153 -2.073441 -0.176070 0.067210 -0.048520 -0.097020 
-0.601820 17.512500 -2.388750 -1.204801 -9.259879 1.672117 -15.046777 13.666723 2.882298 8.375230 -1.045052 -10.772643 -10.428626 7.379589 13.903168 -0.058311 4.687188 3.038659 0.140500 -0.104680 0.225100 18.298838 -11.107669 2.251870 -14.651620 1.002943 -25.657438 1.415685 -5.806330 27.075737 0.090878 -3.938542 2.992014 -0.028900 0.301520 0.076230 -3.656313 -2.065920 -6.839579 8.078478 -3.356431 6.584058 -8.644766 -2.408834 10.389715 2.564993 -5.041255 -9.411001 -11.306742 7.992507 34.324271 -4.332760 6.065340 3.788980 -15.726131 -0.499478 2.041379 -41.991492 0.744642 -7.590997 -22.169912 -39.417369 5.511322 -3.716448 3.287008 0.105980 0.230000 -0.205410 0.115360 10.555104 3.369674 7.570599 52.899864 -4.182398 -5.892783 112.803742 55.900454 59.778700 2.461164 -2.088143 -0.179300 0.075540 -0.058100 -0.084190 
-0.611160 17.537900 -2.379700 -1.235616 -8.052245 2.035603 -15.017480 13.574714 2.900529 8.504968 -1.069427 -10.712925 -10.787687 7.199005 12.748007 -0.076674 4.649180 3.069470 0.129960 -0.117930 0.212350 18.332580 -11.145397 2.226276 -14.465628 0.908162 -25.088523 1.734862 -5.789755 26.069157 0.107167 -3.875434 3.026483 -0.027190 0.331370 0.082470 -3.769247 -1.869678 -6.812149 8.953533 -3.498025 6.275010 -9.403375 -2.552301 10.719671 2.727090 -4.804976 -9.245478 -10.537647 7.667479 33.603942 -4.455000 5.882230 3.790510 -15.614699 0.147339 1.944893 -41.604242 1.699992 -8.003379 -23.825550 -42.255876 6.614108 -3.729250 3.321035 0.096490 0.253290 -0.222810 0.121060 10.066777 2.441980 7.561313 52.904116 -4.673936 -5.365825 119.381044 55.388443 66.211712 2.402128 -2.110417 -0.191180 0.088670 -0.047110 -0.081140 
-0.614450 17.563400 -2.374710 -1.231881 -6.147336 2.429626 -15.005348 13.487584 2.905910 8.534152 -1.158959 -10.873832 -10.913019 6.992260 11.894117 -0.094129 4.591128 3.094021 0.123780 -0.128370 0.204100 18.351388 -11.166489 2.213200 -14.664781 0.752131 -24.666912 2.463980 -6.023858 25.505316 0.109618 -3.914540 3.008210 -0.028480 0.347270 0.100490 -3.843323 -1.711648 -6.796421 9.446088 -3.639792 5.928314 -9.827795 -2.727213 11.172303 2.853186 -4.221144 -9.073581 -9.220288 6.920679 33.155091 -4.466400 5.449780 3.833780 -15.290504 0.686866 1.857719 -41.286245 2.247504 -8.244410 -26.015568 -44.894342 7.987206 -3.743185 3.377074 0.082840 0.272060 -0.234840 0.118770 9.473874 1.358051 7.564858 53.276935 -5.431108 -5.171456 124.361488 55.012855 71.420499 2.347385 -2.143734 -0.187980 0.080560 -0.035550 -0.078210 
-0.603680 17.587900 -2.372810 -1.396367 -3.760772 2.747821 -14.983053 13.411738 2.912235 8.633645 -1.243149 -11.008462 -10.891717 6.760950 11.056469 -0.105103 4.508224 3.117638 0.106480 -0.150010 0.201350 18.373122 -11.205109 2.201303 -14.833739 0.545869 -23.997617 3.302944 -6.314086 24.899765 0.111468 -3.957452 2.991911 -0.043310 0.339830 0.108560 -3.942238 -1.547287 -6.805234 10.364946 -3.846970 5.735122 -10.213360 -2.963280 11.616710 3.083882 -3.567033 -9.083752 -7.929609 5.887661 33.169316 -4.907480 5.048220 3.972130 -14.919870 0.985487 1.889710 -41.353457 2.699285 -8.558028 -28.556107 -47.858259 9.673898 -3.745466 3.426780 0.072940 0.278550 -0.239750 0.101650 8.619574 0.442010 7.758588 53.780887 -6.420416 -5.288212 128.888848 54.671032 76.327289 2.305395 -2.165852 -0.181170 0.063410 -0.023010 -0.082760 
-0.591290 17.609980 -2.374080 -1.504683 -1.362867 3.008170 -14.981330 13.330786 2.953368 8.958425 -1.286423 -10.818463 -11.219760 6.515367 9.630590 -0.111808 4.456172 3.130990 0.105380 -0.160460 0.218630 18.375082 -11.224806 2.178971 -14.944062 0.379706 -23.342506 3.886385 -6.508281 24.393955 0.098537 -3.978889 2.977085 -0.054180 0.311620 0.117390 -3.983464 -1.419837 -6.847164 10.802704 -3.841121 5.720671 -9.976082 -3.034930 11.987438 3.276215 -2.787873 -9.137464 -6.528392 4.530534 33.448671 -5.576440 4.555740 3.657020 -14.365644 1.394033 1.902507 -41.696485 2.950780 -8.732975 -32.036367 -50.866208 11.964106 -3.729049 3.475203 0.086540 0.268100 -0.226070 0.086280 7.701072 -0.567122 7.996130 54.216496 -7.688041 -5.658194 132.945799 54.435293 80.998055 2.264724 -2.180832 -0.174530 0.045360 -0.021690 -0.095920 
-0.567760 17.622450 -2.378870 -1.676995 1.084441 3.540054 -14.972794 13.212127 2.956413 9.065717 -1.394122 -11.077857 -11.216261 6.241788 8.593920 -0.135532 4.381314 3.170264 0.101260 -0.169290 0.229100 18.392584 -11.251550 2.179129 -15.131911 0.264201 -23.044638 4.553343 -6.710574 23.871107 0.097975 -4.029750 2.960134 -0.051510 0.319650 0.127870 -4.060282 -1.189956 -6.842173 11.436073 -3.687687 5.294897 -9.803109 -2.977667 12.433913 3.427783 -1.862267 -8.966236 -4.745104 2.801149 32.825885 -6.441040 3.916060 3.672560 -13.809544 2.104165 1.790562 -41.747175 3.071011 -8.474228 -37.909598 -53.609955 15.680001 -3.748804 3.534296 0.072640 0.290230 -0.234660 0.085470 6.867114 -2.021048 8.048171 54.463421 -9.065278 -5.955190 136.579399 54.219756 85.453697 2.209355 -2.215634 -0.179220 0.043810 -0.024100 -0.100220 
-0.540340 17.635660 -2.394530 -1.765019 3.590275 3.904368 -14.970078 13.116608 2.971929 9.164899 -1.526336 -11.542098 -11.382206 6.100343 8.035512 -0.154382 4.332124 3.187544 0.100560 -0.166980 0.229300 18.398267 -11.275834 2.176056 -15.462075 0.110315 -22.571724 5.205019 -6.888002 23.216949 0.099377 -4.066395 2.958519 -0.046000 0.321630 0.125740 -4.113820 -1.016286 -6.859159 11.792646 -3.501253 5.208132 -9.293173 -2.915176 12.617664 3.468132 -1.077681 -8.793254 -3.318741 1.426598 32.659530 -6.771340 3.221640 3.614680 -13.221362 2.967748 1.696474 -41.861380 3.252758 -8.045722 -45.285830 -56.452303 20.697571 -3.760556 3.595224 0.062740 0.302320 -0.242910 0.084080 6.245597 -3.475388 7.953907 54.407989 -10.288584 -6.011217 139.224615 53.497343 88.206624 2.161957 -2.254982 -0.180820 0.048160 -0.023100 -0.103220 
-0.509200 17.645930 -2.415800 -1.908475 6.323648 4.129986 -14.971821 13.045292 2.985426 9.245978 -1.716770 -12.366728 -11.475092 6.058634 8.159297 -0.176826 4.282887 3.195402 0.111580 -0.164260 0.259160 18.391879 -11.324721 2.174142 -15.614711 -0.033600 -22.064618 5.622056 -7.039272 22.846869 0.087838 -4.106093 2.944032 -0.044420 0.297220 0.129960 -4.149876 -0.843993 -6.888109 11.985267 -3.266189 5.334569 -8.591920 -2.795761 12.834219 3.603885 0.009676 -8.808509 -1.421406 -0.418540 32.553933 -7.500150 2.546010 3.474990 -12.577055 3.591176 1.718357 -41.728950 3.637346 -7.509024 -55.328224 -59.227340 27.837442 -3.758537 3.668070 0.067400 0.300090 -0.234130 0.077010 5.397398 -4.871359 8.074949 54.414952 -11.961230 -6.050091 142.396988 52.147752 90.879194 2.121482 -2.320793 -0.177480 0.036080 -0.036090 -0.117250 
